<svg  viewBox="0 0 15 26" fill="none" xmlns="http://www.w3.org/2000/svg">
<path d="M0.000326293 1.19948C0.0076337 1.50855 0.136782 1.80223 0.359638 2.01651L11.2488 12.9057L0.359638 23.7949C0.247389 23.9041 0.158165 24.0347 0.0972368 24.1789C0.0363087 24.3232 0.00491264 24.4782 0.00490351 24.6348C0.00496477 24.8679 0.0745427 25.0957 0.204742 25.2891C0.334941 25.4824 0.519846 25.6325 0.735816 25.7203C0.951787 25.808 1.18901 25.8293 1.41716 25.7815C1.6453 25.7337 1.85401 25.6189 2.01659 25.4519L13.7343 13.7342C13.9539 13.5144 14.0773 13.2164 14.0773 12.9057C14.0773 12.595 13.9539 12.297 13.7343 12.0772L2.01659 0.359558C1.85295 0.189384 1.64173 0.0726051 1.41059 0.0245171C1.17945 -0.0235729 0.93918 -0.000730515 0.721247 0.0900536C0.503313 0.18084 0.317881 0.335333 0.189243 0.533295C0.0606037 0.731258 -0.00524341 0.963455 0.000326293 1.19948Z" fill="currentColor"/>
</svg>
