<svg width="43" height="31" viewBox="0 0 43 31" fill="none" xmlns="http://www.w3.org/2000/svg">
<path d="M41.3937 30.5806H28.0244C27.3108 30.5806 26.7874 30.045 26.7874 29.42L26.7871 19.9556C26.7871 19.286 27.3579 18.7949 28.024 18.7949H41.3934C42.1069 18.7949 42.6303 19.3305 42.6303 19.9556V29.3753C42.6306 30.0448 42.0598 30.5805 41.3937 30.5805L41.3937 30.5806ZM29.2614 28.2145H40.1567L40.157 21.1611H29.2617L29.2614 28.2145Z" fill="currentColor"/>
<path d="M14.6063 30.5806H1.23693C0.523405 30.5806 0 30.045 0 29.42V19.9556C0 19.286 0.57083 18.7949 1.23693 18.7949H14.6063C15.3198 18.7949 15.8432 19.3305 15.8432 19.9556V29.3753C15.891 30.0448 15.3202 30.5805 14.6063 30.5805V30.5806ZM2.47395 28.2145H13.3692L13.3696 21.1611H2.47429L2.47395 28.2145Z" fill="currentColor"/>
<path d="M28.023 30.5809H14.6061C13.8925 30.5809 13.3691 30.0453 13.3691 29.4203V19.9559C13.3691 19.2864 13.94 18.7952 14.6061 18.7952L27.9754 18.7949C28.6889 18.7949 29.2123 19.3305 29.2123 19.9556V29.3753C29.2601 30.0452 28.6893 30.5808 28.0232 30.5808L28.023 30.5809ZM15.8907 28.2148H26.786V21.1614H15.8907V28.2148Z" fill="currentColor"/>
<path d="M21.3156 21.161H7.94625C7.23272 21.161 6.70932 20.6253 6.70932 20.0003L6.70898 10.5806C6.70898 9.91105 7.27982 9.41992 7.94592 9.41992H21.3152C22.0288 9.41992 22.5522 9.95555 22.5522 10.5806V20.0003C22.5522 20.6253 22.0288 21.1612 21.3152 21.1612L21.3156 21.161ZM9.18327 18.7946H20.0786L20.0789 11.7411H9.1836L9.18327 18.7946Z" fill="currentColor"/>
<path d="M34.6844 21.161H21.3151C20.6015 21.161 20.0781 20.6253 20.0781 20.0003V10.5806C20.0781 9.91105 20.649 9.41992 21.3151 9.41992H34.6844C35.3979 9.41992 35.9213 9.95555 35.9213 10.5806V20.0003C35.9691 20.6253 35.3983 21.1612 34.6844 21.1612V21.161ZM22.5521 18.7946H33.4474L33.4477 11.7411H22.5524L22.5521 18.7946Z" fill="currentColor"/>
<path d="M28.023 11.741H14.6061C13.8925 11.741 13.3691 11.2054 13.3691 10.5804V1.16065C13.3691 0.491125 13.94 0 14.6061 0H27.9754C28.6889 0 29.2123 0.535625 29.2123 1.16065V10.5804C29.2601 11.2054 28.6893 11.7413 28.0232 11.7413L28.023 11.741ZM15.8907 9.37463H26.786V2.32122H15.8907V9.37463Z" fill="currentColor"/>
</svg>
