<svg viewBox="0 0 40 40" fill="none" xmlns="http://www.w3.org/2000/svg">
<path d="M20 0C19.64 0 19.2795 0.0772472 18.9375 0.225149L1.80078 7.68054C0.712781 8.15252 0 9.29686 0 10.5692V11.7247C0 13.8997 2 13.8997 2 13.8997V35.65C0.896 35.65 0 36.6244 0 37.825C0 39.0256 0.896 40 2 40H38C39.104 40 40 39.0256 40 37.825C40 36.6244 39.104 35.65 38 35.65V13.8997C38 13.8997 40 13.8997 40 11.7247V10.5692C40 9.29686 39.2872 8.15252 38.1992 7.68054L21.0625 0.225149C20.7225 0.0750722 20.36 0 20 0ZM6 13.8997H10V35.65H6V13.8997ZM14 13.8997H18V35.65H14V13.8997ZM22 13.8997H26V35.65H22V13.8997ZM30 13.8997H34V35.65H30V13.8997Z" fill="currentColor"/>
</svg>
