<svg viewBox="0 0 24 24" fill="none" xmlns="http://www.w3.org/2000/svg">
<path d="M24 5.33333V4.33333C24 1.944 22.056 0 19.6667 0H4.33333C1.944 0 0 1.944 0 4.33333V5.33333H24ZM0 7.33333V19.6667C0 22.056 1.944 24 4.33333 24H19.6667C22.056 24 24 22.056 24 19.6667V7.33333H0ZM6.33333 20C5.41267 20 4.66667 19.254 4.66667 18.3333C4.66667 17.4127 5.41267 16.6667 6.33333 16.6667C7.254 16.6667 8 17.4127 8 18.3333C8 19.254 7.254 20 6.33333 20ZM6.33333 14C5.41267 14 4.66667 13.254 4.66667 12.3333C4.66667 11.4127 5.41267 10.6667 6.33333 10.6667C7.254 10.6667 8 11.4127 8 12.3333C8 13.254 7.254 14 6.33333 14ZM12 20C11.0793 20 10.3333 19.254 10.3333 18.3333C10.3333 17.4127 11.0793 16.6667 12 16.6667C12.9207 16.6667 13.6667 17.4127 13.6667 18.3333C13.6667 19.254 12.9207 20 12 20ZM12 14C11.0793 14 10.3333 13.254 10.3333 12.3333C10.3333 11.4127 11.0793 10.6667 12 10.6667C12.9207 10.6667 13.6667 11.4127 13.6667 12.3333C13.6667 13.254 12.9207 14 12 14ZM17.6667 14C16.746 14 16 13.254 16 12.3333C16 11.4127 16.746 10.6667 17.6667 10.6667C18.5873 10.6667 19.3333 11.4127 19.3333 12.3333C19.3333 13.254 18.5873 14 17.6667 14Z" fill="currentColor"/>
</svg>
