<svg viewBox="0 0 43 40" fill="none" xmlns="http://www.w3.org/2000/svg">
<path fill-rule="evenodd" clip-rule="evenodd" d="M19.7475 3.54067C20.6884 2.92254 21.9408 2.92254 22.8817 3.54067L38.1843 13.5917C38.9148 14.0715 39.3499 14.8555 39.3499 15.6924V33.4543C39.3499 34.8705 38.1264 36.0186 36.6171 36.0186H6.01197C4.5027 36.0186 3.27919 34.8705 3.27919 33.4543V15.6924C3.27919 14.8555 3.71434 14.0715 4.44481 13.5917L19.7475 3.54067ZM24.7621 1.01968C22.6921 -0.339893 19.937 -0.339893 17.867 1.01968L2.56442 11.0716C0.957058 12.1273 0 13.8522 0 15.6929V33.4548C0 36.5705 2.69147 39.096 6.01197 39.096H36.6171C39.9376 39.096 42.6291 36.5705 42.6291 33.4548V15.6929C42.6291 13.8521 41.672 12.1272 40.0647 11.0716L24.7621 1.01968Z" fill="currentColor"/>
<path fill-rule="evenodd" clip-rule="evenodd" d="M14.7565 31.9153H27.8732V28.8384H14.7565V31.9153Z" fill="currentColor"/>
</svg>
