<svg width="43" height="40" viewBox="0 0 43 40" fill="none" xmlns="http://www.w3.org/2000/svg">
<path fill-rule="evenodd" clip-rule="evenodd" d="M22.8816 3.54067C21.9407 2.92254 20.6883 2.92254 19.7474 3.54067L4.4448 13.5917C3.7143 14.0715 3.27919 14.8555 3.27919 15.6924V33.4543C3.27919 34.8705 4.5027 36.0186 6.01197 36.0186H36.6171C38.1264 36.0186 39.3499 34.8705 39.3499 33.4543V15.6924C39.3499 14.8555 38.9148 14.0715 38.1843 13.5917L22.8816 3.54067ZM17.867 1.01968C19.937 -0.339893 22.6921 -0.339893 24.7621 1.01968L40.0647 11.0716C41.672 12.1273 42.6291 13.8522 42.6291 15.6929V33.4548C42.6291 36.5705 39.9376 39.096 36.6171 39.096H6.01197C2.69147 39.096 0 36.5705 0 33.4548V15.6929C0 13.8521 0.957055 12.1272 2.56442 11.0716L17.867 1.01968Z" fill="currentColor"/>
<path d="M13.8419 18.9455H14.1564C16.6264 18.9455 18.6472 20.8417 18.6472 23.1594V23.3278H24.3056V23.1594C24.3056 20.8417 26.3264 18.9455 28.7964 18.9455C28.8863 18.9455 29.021 18.9455 29.1109 18.9876V18.9455C29.1109 17.1757 27.5841 15.7852 25.7428 15.7852H17.2102C15.3686 15.7852 13.8418 17.2178 13.8418 18.9455H13.8419Z" fill="currentColor"/>
<path d="M26.236 23.1592V24.6342C26.236 24.887 26.0114 25.0977 25.742 25.0977L17.2544 25.0974C16.9398 25.0974 16.7156 24.8867 16.7156 24.6339V23.1589C16.7156 21.8103 15.5928 20.7568 14.1556 20.7568C12.7636 20.7568 11.5957 21.8103 11.5957 23.1589V30.238C11.5957 30.7859 12.0897 31.2494 12.7184 31.2494H30.3224C30.9063 31.2494 31.4003 30.7859 31.4003 30.238L31.4006 23.1592C31.4006 21.8106 30.2779 20.7571 28.8407 20.7571C27.4038 20.7571 26.236 21.8106 26.236 23.1592Z" fill="currentColor"/>
</svg>
