<svg  viewBox="0 0 25 24" fill="none" xmlns="http://www.w3.org/2000/svg">
<path d="M12.0418 0C5.40214 0 0 5.38338 0 12C0 18.6166 5.40214 24 12.0418 24C18.6815 24 24.0836 18.6166 24.0836 12C24.0836 5.38338 18.6815 0 12.0418 0ZM8.95356 3.69231H15.1283C18.0229 3.69231 20.3785 6.03878 20.3785 8.92248V15.0757C20.3785 17.9603 18.0238 20.3077 15.1301 20.3077H8.95537C6.06071 20.3077 3.70517 17.9612 3.70517 15.0775V8.92428C3.70517 6.03966 6.05982 3.69231 8.95356 3.69231ZM8.95356 5.53846C7.08153 5.53846 5.55776 7.05782 5.55776 8.92428V15.0775C5.55776 16.9431 7.08241 18.4615 8.95537 18.4615H15.1301C17.0021 18.4615 18.5259 16.9422 18.5259 15.0757V8.92248C18.5259 7.05694 17.0012 5.53846 15.1283 5.53846H8.95356ZM16.3657 7.07632C16.7066 7.07632 16.9826 7.35141 16.9826 7.69111C16.9826 8.0308 16.7066 8.30769 16.3657 8.30769C16.0248 8.30769 15.747 8.0308 15.747 7.69111C15.747 7.35141 16.0248 7.07632 16.3657 7.07632ZM12.0418 7.38462C14.5956 7.38462 16.6733 9.45508 16.6733 12C16.6733 14.5449 14.5956 16.6154 12.0418 16.6154C9.48802 16.6154 7.41035 14.5449 7.41035 12C7.41035 9.45508 9.48802 7.38462 12.0418 7.38462ZM12.0418 9.23077C11.3048 9.23077 10.598 9.52253 10.0768 10.0419C9.55571 10.5612 9.26293 11.2656 9.26293 12C9.26293 12.7344 9.55571 13.4388 10.0768 13.9581C10.598 14.4775 11.3048 14.7692 12.0418 14.7692C12.7788 14.7692 13.4856 14.4775 14.0068 13.9581C14.5279 13.4388 14.8207 12.7344 14.8207 12C14.8207 11.2656 14.5279 10.5612 14.0068 10.0419C13.4856 9.52253 12.7788 9.23077 12.0418 9.23077Z" fill="currentColor"/>
</svg>
