<svg  viewBox="0 0 19 27" fill="none" xmlns="http://www.w3.org/2000/svg">
<path d="M18.1816 7.36599C18.1816 6.25188 17.8092 5.12173 17.0727 3.97555C16.3361 2.82938 15.252 1.88358 13.8369 1.13015C12.4217 0.376716 10.7666 0 8.87142 0C7.11696 0 5.56112 0.312594 4.22045 0.945797C2.87151 1.57098 1.83704 2.42861 1.10049 3.51067C0.363953 4.59272 -0.000179291 5.76295 -0.000179291 7.02935C-0.000179291 8.03126 0.206713 8.90492 0.628775 9.65033C1.05084 10.4038 1.54738 11.053 2.11841 11.598C2.69771 12.1431 3.72391 13.0648 5.22182 14.3553C5.6356 14.716 5.96663 15.0366 6.21491 15.3171C6.46318 15.5896 6.64525 15.8461 6.76938 16.0705C6.89352 16.303 6.98455 16.5274 7.05076 16.7598C7.11696 16.9923 7.21627 17.393 7.34869 17.9701C7.58041 19.1885 8.3004 19.8056 9.50866 19.8056C10.1376 19.8056 10.6673 19.6052 11.0976 19.2045C11.5279 18.8037 11.7431 18.2106 11.7431 17.4251C11.7431 16.4392 11.5859 15.5816 11.2714 14.8602C10.9569 14.1389 10.5348 13.5057 10.0135 12.9606C9.4921 12.4156 8.78867 11.7664 7.90316 11.0129C7.12524 10.3557 6.57076 9.85873 6.22318 9.52209C5.8756 9.18545 5.58595 8.81675 5.35423 8.39996C5.11423 7.99118 4.99837 7.54233 4.99837 7.06142C4.99837 6.12363 5.36251 5.33013 6.0825 4.68089C6.80249 4.03166 7.73765 3.71105 8.87142 3.71105C10.2038 3.71105 11.1886 4.03968 11.8176 4.68891C12.4465 5.33814 12.9845 6.29997 13.4148 7.56637C13.8286 8.8969 14.6065 9.55415 15.7568 9.55415C16.4355 9.55415 17.0065 9.32171 17.4782 8.85683C17.9416 8.40797 18.1816 7.91103 18.1816 7.36599ZM9.30176 26.6667C10.0383 26.6667 10.6838 26.4342 11.2383 25.9693C11.7928 25.5045 12.0659 24.8552 12.0659 24.0216C12.0659 23.2842 11.801 22.659 11.2631 22.1541C10.7335 21.6491 10.0714 21.4007 9.30176 21.4007C8.54039 21.4007 7.89488 21.6571 7.37351 22.1541C6.85214 22.659 6.59559 23.2842 6.59559 24.0216C6.59559 24.8472 6.86869 25.4884 7.41489 25.9613C7.96109 26.4342 8.59005 26.6667 9.30176 26.6667Z" fill="currentColor"/>
</svg>
