<svg width="43" height="41" viewBox="0 0 43 41" fill="none" xmlns="http://www.w3.org/2000/svg">
<path d="M10.4931 6.30749C10.2309 6.30749 9.96835 6.24611 9.77163 6.06153C9.37821 5.69236 9.37821 5.13862 9.77163 4.769L11.608 3.04592C12.0014 2.67675 12.5915 2.67675 12.9855 3.04592C13.3789 3.41508 13.3789 3.96882 12.9855 4.33845L11.2146 6.0001C11.0179 6.18468 10.7552 6.30749 10.4931 6.30749Z" fill="currentColor"/>
<path d="M33.1194 40.0923C32.8573 40.0923 32.5947 40.0309 32.398 39.8463L0.262134 9.63088C0.0654189 9.4463 0 9.19991 0 8.95394C0 8.70797 0.131295 8.46157 0.262134 8.27699L8.78808 0.276874C9.18151 -0.0922913 9.77164 -0.0922913 10.1656 0.276874L42.367 30.5538C42.5637 30.7384 42.6291 30.9848 42.6291 31.2308C42.6291 31.4767 42.4978 31.7231 42.367 31.9077L33.841 39.9078C33.6443 40.031 33.3822 40.0924 33.1196 40.0924L33.1194 40.0923ZM2.36082 9.01531L33.185 37.9384L40.268 31.1694L9.44382 2.24629L2.36082 9.01531Z" fill="currentColor"/>
<path d="M11.1493 9.93834C10.8872 9.93834 10.6246 9.87695 10.4279 9.69237C10.0345 9.3232 10.0345 8.76947 10.4279 8.39984L13.8383 5.19973C14.2318 4.83056 14.8219 4.83056 15.2158 5.19973C15.6092 5.56889 15.6092 6.12263 15.2158 6.49226L11.8708 9.63061C11.6741 9.81519 11.4115 9.93834 11.1493 9.93834Z" fill="currentColor"/>
<path d="M15.3466 10.8617C15.0845 10.8617 14.8219 10.8003 14.6252 10.6157C14.2317 10.2466 14.2317 9.69282 14.6252 9.32319L16.4615 7.60012C16.8549 7.23095 17.445 7.23095 17.839 7.60012C18.2324 7.96928 18.2324 8.52302 17.839 8.89264L16.0026 10.6157C15.8713 10.8003 15.6087 10.8617 15.3466 10.8617Z" fill="currentColor"/>
<path d="M16.0028 14.492C15.7407 14.492 15.4781 14.4307 15.2814 14.2461C14.888 13.8769 14.888 13.3232 15.2814 12.9536L18.6918 9.75344C19.0853 9.38427 19.6754 9.38427 20.0693 9.75344C20.4628 10.1226 20.4628 10.6763 20.0693 11.046L16.6589 14.2461C16.5276 14.3693 16.2654 14.492 16.0028 14.492Z" fill="currentColor"/>
<path d="M20.2646 15.4154C20.0024 15.4154 19.7398 15.354 19.5431 15.1694C19.1497 14.8003 19.1497 14.2465 19.5431 13.8769L21.3795 12.1538C21.7729 11.7847 22.363 11.7847 22.7569 12.1538C23.1504 12.523 23.1504 13.0767 22.7569 13.4464L20.9201 15.169C20.7893 15.3536 20.5267 15.4154 20.2646 15.4154Z" fill="currentColor"/>
<path d="M20.9208 19.0458C20.6587 19.0458 20.3961 18.9844 20.1994 18.7998C19.8059 18.4306 19.8059 17.8769 20.1994 17.5073L23.6098 14.3071C24.0032 13.938 24.5934 13.938 24.9873 14.3071C25.3807 14.6763 25.3807 15.23 24.9873 15.5997L21.5769 18.7998C21.3801 18.9844 21.1834 19.0458 20.9208 19.0458Z" fill="currentColor"/>
<path d="M25.1181 20.0306C24.8559 20.0306 24.5933 19.9693 24.3966 19.7847C24.0032 19.4155 24.0032 18.8618 24.3966 18.4921L26.233 16.7691C26.6264 16.3999 27.2165 16.3999 27.6104 16.7691C28.0039 17.1382 28.0039 17.692 27.6104 18.0616L25.7741 19.7847C25.6428 19.9074 25.3807 20.0306 25.1181 20.0306Z" fill="currentColor"/>
<path d="M25.7743 23.6615C25.5122 23.6615 25.2496 23.6001 25.0529 23.4155C24.6595 23.0463 24.6595 22.4926 25.0529 22.123L28.4633 18.9229C28.8568 18.5537 29.4469 18.5537 29.8408 18.9229C30.2342 19.292 30.2342 19.8458 29.8408 20.2154L26.4304 23.4155C26.2991 23.5383 26.0365 23.6615 25.7743 23.6615Z" fill="currentColor"/>
<path d="M30.038 24.5843C29.7759 24.5843 29.5133 24.523 29.3166 24.3384C28.9231 23.9692 28.9231 23.4155 29.3166 23.0459L31.1529 21.3228C31.5463 20.9536 32.1364 20.9536 32.5304 21.3228C32.9238 21.6919 32.9238 22.2457 32.5304 22.6153L30.694 24.3384C30.4973 24.523 30.2347 24.5843 30.038 24.5843Z" fill="currentColor"/>
<path d="M30.6923 28.2157C30.4302 28.2157 30.1676 28.1543 29.9709 27.9697C29.5774 27.6005 29.5774 27.0468 29.9709 26.6772L33.3813 23.4771C33.7747 23.1079 34.3649 23.1079 34.7588 23.4771C35.1522 23.8462 35.1522 24.4 34.7588 24.7696L31.3483 27.9697C31.1512 28.1539 30.889 28.2157 30.6923 28.2157Z" fill="currentColor"/>
<path d="M34.8896 29.1996C34.6274 29.1996 34.3648 29.1382 34.1681 28.9536C33.7747 28.5844 33.7747 28.0307 34.1681 27.6611L36.0045 25.938C36.3979 25.5688 36.988 25.5688 37.3819 25.938C37.7754 26.3072 37.7754 26.8609 37.3819 27.2305L35.5456 28.9536C35.4143 29.0768 35.1517 29.1996 34.8896 29.1996Z" fill="currentColor"/>
<path d="M3.7392 39.1073C3.47707 39.1073 3.21448 39.0459 3.08318 38.8613C2.82105 38.6154 2.68975 38.2458 2.82105 37.9384L5.83812 28.8923C5.90353 28.7691 5.96941 28.6463 6.10025 28.5231L13.5113 21.3228C13.9047 20.9536 14.4948 20.9536 14.8888 21.3228C15.2822 21.6919 15.2822 22.2457 14.8888 22.6153L7.60855 29.6307L5.24755 36.7693L12.7894 34.3693L19.8724 27.5385C20.2658 27.1693 20.856 27.1693 21.2499 27.5385C21.6433 27.9077 21.6433 28.4614 21.2499 28.831L14.0355 35.846C13.9042 35.9692 13.7733 36.0306 13.642 36.0919L4.06665 39.1074H3.7391L3.7392 39.1073Z" fill="currentColor"/>
<path d="M29.6443 20.4613C29.3821 20.4613 29.1196 20.3999 28.9883 20.2153C28.5948 19.8461 28.5948 19.2924 28.9883 18.9228L39.7439 8.58451L34.5631 3.84594L24.1354 13.8151C23.742 14.1842 23.1519 14.1842 22.758 13.8151C22.3645 13.4459 22.3645 12.8922 22.758 12.5225L33.8417 1.87648C34.2351 1.50732 34.8252 1.50732 35.2191 1.87648L41.7775 7.90715C41.9742 8.09173 42.0396 8.33813 42.1055 8.58409C42.1055 8.83006 42.0401 9.07646 41.8433 9.26104L30.3658 20.2153C30.1691 20.3999 29.9069 20.4613 29.6443 20.4613Z" fill="currentColor"/>
<path d="M37.5135 12.4614C37.2514 12.4614 36.9888 12.4 36.7921 12.2155L30.6271 6.43073C30.2337 6.06157 30.2337 5.50783 30.6271 5.1382C31.0205 4.76904 31.6107 4.76904 32.0046 5.1382L38.1695 10.9229C38.563 11.2921 38.563 11.8458 38.1695 12.2155C38.0382 12.4 37.7761 12.4614 37.5135 12.4614Z" fill="currentColor"/>
<path d="M10.8872 36.2771C10.6251 36.2771 10.3625 36.2157 10.1658 36.0312L6.09976 32.2159C5.70633 31.8467 5.70633 31.293 6.09976 30.9234C6.49319 30.5542 7.08332 30.5542 7.47724 30.9234L11.5433 34.7386C11.9367 35.1078 11.9367 35.6615 11.5433 36.0312C11.412 36.2153 11.1498 36.2771 10.8872 36.2771Z" fill="currentColor"/>
</svg>
