<svg xmlns="http://www.w3.org/2000/svg" fill="currentColor" viewBox="0 0 20 20"><path fill="currentColor" fillRule="evenodd" d="M11.502 4.445a2.784 2.784 0 0 1 2.79-2.778 2.784 2.784 0 0 1 2.79 2.778 2.784 2.784 0 0 1-2.79 2.777 2.79 2.79 0 0 1-1.987-.827l-3.863 2.63a2.78 2.78 0 0 1-.151 1.597l4.235 2.783a2.8 2.8 0 0 1 1.766-.627 2.784 2.784 0 0 1 2.79 2.778 2.784 2.784 0 0 1-2.79 2.777 2.784 2.784 0 0 1-2.79-2.777c0-.402.086-.785.24-1.13l-4.2-2.76a2.8 2.8 0 0 1-1.836.684 2.784 2.784 0 0 1-2.79-2.777 2.784 2.784 0 0 1 2.79-2.778 2.79 2.79 0 0 1 2.186 1.051l3.744-2.549a2.8 2.8 0 0 1-.134-.852" clipRule="evenodd" /></svg>