<svg viewBox="0 0 40 40" fill="none" xmlns="http://www.w3.org/2000/svg">
<path d="M20 0C19 0 18.3333 0.666667 18.3333 1.66667V3.33333C18.3333 4.33333 19 5 20 5C21 5 21.6667 4.33333 21.6667 3.33333V1.66667C21.6667 0.666667 21 0 20 0ZM6.9987 5.33203C6.58203 5.33203 6.16667 5.5 5.83333 5.83333C5.16667 6.5 5.16667 7.50065 5.83333 8.16732L6.9987 9.33268C7.66536 9.99935 8.66602 9.99935 9.33268 9.33268C9.99935 8.66602 9.99935 7.66536 9.33268 6.9987L8.16732 5.83333C7.83398 5.5 7.41536 5.33203 6.9987 5.33203ZM33.0013 5.33203C32.5846 5.33203 32.166 5.5 31.8327 5.83333L30.6673 6.9987C30.0007 7.66536 30.0007 8.66602 30.6673 9.33268C31.334 9.99935 32.3346 9.99935 33.0013 9.33268L34.1667 8.16732C34.8333 7.50065 34.8333 6.5 34.1667 5.83333C33.8333 5.5 33.418 5.33203 33.0013 5.33203ZM20 8.33333C16.9058 8.33333 13.9383 9.5625 11.7504 11.7504C9.5625 13.9383 8.33333 16.9058 8.33333 20C8.33333 23.0942 9.5625 26.0617 11.7504 28.2496C13.9383 30.4375 16.9058 31.6667 20 31.6667C23.0942 31.6667 26.0617 30.4375 28.2496 28.2496C30.4375 26.0617 31.6667 23.0942 31.6667 20C31.6667 16.9058 30.4375 13.9383 28.2496 11.7504C26.0617 9.5625 23.0942 8.33333 20 8.33333ZM1.66667 18.3333C0.666667 18.3333 0 19 0 20C0 21 0.666667 21.6667 1.66667 21.6667H3.33333C4.33333 21.6667 5 21 5 20C5 19 4.33333 18.3333 3.33333 18.3333H1.66667ZM36.6667 18.3333C35.6667 18.3333 35 19 35 20C35 21 35.6667 21.6667 36.6667 21.6667H38.3333C39.3333 21.6667 40 21 40 20C40 19 39.3333 18.3333 38.3333 18.3333H36.6667ZM8.16732 30.166C7.75065 30.166 7.33203 30.334 6.9987 30.6673L5.83333 31.8327C5.16667 32.4993 5.16667 33.5 5.83333 34.1667C6.5 34.8333 7.50065 34.8333 8.16732 34.1667L9.33268 33.0013C9.99935 32.3346 9.99935 31.334 9.33268 30.6673C8.99935 30.334 8.58398 30.166 8.16732 30.166ZM31.8327 30.166C31.416 30.166 31.0007 30.334 30.6673 30.6673C30.0007 31.334 30.0007 32.3346 30.6673 33.0013L31.8327 34.1667C32.4993 34.8333 33.5 34.8333 34.1667 34.1667C34.8333 33.5 34.8333 32.4993 34.1667 31.8327L33.0013 30.6673C32.668 30.334 32.2493 30.166 31.8327 30.166ZM20 35C19 35 18.3333 35.6667 18.3333 36.6667V38.3333C18.3333 39.3333 19 40 20 40C21 40 21.6667 39.3333 21.6667 38.3333V36.6667C21.6667 35.6667 21 35 20 35Z" fill="currentColor"/>
</svg>
