<svg viewBox="0 0 20 20" fill="none" xmlns="http://www.w3.org/2000/svg">
<path d="M9.56474 0C8.14186 0.283886 6.87657 1.94004 6.08178 4.31289H9.56474V0ZM10.4353 0V4.31289H13.9182C13.1234 1.94004 11.8581 0.283886 10.4353 0ZM7.34847 0.314766C5.04723 0.949798 3.0757 2.38901 1.7538 4.31289H5.14495C5.67248 2.61437 6.43354 1.23194 7.34847 0.314766ZM12.6515 0.314766C13.5665 1.2315 14.3275 2.61437 14.8551 4.31289H18.2462C16.9243 2.38945 14.9528 0.949798 12.6515 0.314766ZM1.20547 5.20515C0.495996 6.51059 0.0674658 7.99096 0 9.56325H4.34668C4.37758 7.9962 4.57026 6.52369 4.89671 5.20515H1.20547ZM5.81484 5.20515C5.46489 6.51802 5.25157 8.001 5.21806 9.56325H9.56474V5.20515H5.81484ZM10.4353 5.20515V9.56325H14.7819C14.748 8.001 14.5351 6.51802 14.1852 5.20515H10.4353ZM15.1033 5.20515C15.4297 6.52326 15.622 7.9962 15.6525 9.56325H20C19.9325 7.99096 19.5044 6.51059 18.7945 5.20515H15.1033ZM0 10.4367C0.0674658 12.009 0.495561 13.4894 1.20547 14.7948H4.89671C4.57026 13.4763 4.378 12.0038 4.34753 10.4367H0ZM5.21806 10.4367C5.25201 11.999 5.46489 13.482 5.81484 14.7948H9.56474V10.4367H5.21806ZM10.4353 10.4367V14.7948H14.1852C14.5351 13.482 14.7484 11.9994 14.7819 10.4367H10.4353ZM15.6533 10.4367C15.6224 12.0038 15.4297 13.4763 15.1033 14.7948H18.7945C19.504 13.4894 19.9325 12.009 20 10.4367H15.6533ZM1.7538 15.6871C3.0757 17.6105 5.04723 19.0502 7.34847 19.6852C6.43354 18.7685 5.67248 17.3856 5.14495 15.6871H1.7538ZM6.08178 15.6871C6.87657 18.06 8.14186 19.7161 9.56474 20V15.6871H6.08178ZM10.4353 15.6871V20C11.8581 19.7161 13.1234 18.06 13.9182 15.6871H10.4353ZM14.8551 15.6871C14.3275 17.3856 13.5665 18.7681 12.6515 19.6852C14.9528 19.0502 16.9243 17.611 18.2462 15.6871H14.8551Z" fill="currentColor"/>
</svg>
