<svg viewBox="0 0 22 24" fill="none" xmlns="http://www.w3.org/2000/svg">
<path d="M9.26363 0C6.07115 0 3.47386 2.56337 3.47386 5.71416C3.47386 8.86494 6.07115 11.4283 9.26363 11.4283C12.4561 11.4283 15.0534 8.86494 15.0534 5.71416C15.0534 2.56337 12.4561 0 9.26363 0ZM19.3946 11.4283C19.236 11.4289 19.0755 11.4427 18.914 11.4718C18.4022 11.5627 17.9133 11.8261 17.5005 12.2341L10.6692 18.9761C10.4625 19.1801 10.3104 19.4345 10.2293 19.7105L9.32017 22.8421C9.27849 22.9507 9.25958 23.0654 9.26363 23.1803C9.27116 23.3877 9.35372 23.5928 9.51467 23.7517C9.67505 23.91 9.8818 23.9915 10.0914 23.9995C10.2078 24.0035 10.3257 23.9854 10.4363 23.9437L13.6094 23.0464C13.889 22.9664 14.145 22.8168 14.3523 22.6122L21.1847 15.8702C21.5981 15.4628 21.865 14.9803 21.957 14.4751C21.986 14.3157 21.9994 14.1574 22 14.0008C22.0017 13.3185 21.7352 12.6736 21.2367 12.1828C20.7394 11.6913 20.0859 11.4272 19.3946 11.4283ZM2.6054 13.714C1.16895 13.714 0 14.8677 0 16.2853V16.9706C0 20.0271 3.49339 22.4669 8.13621 22.8109C8.15821 22.6834 9.11549 19.3958 9.11549 19.3958C9.25155 18.9312 9.50601 18.507 9.85165 18.167L14.3636 13.714H2.6054Z" fill="currentColor"/>
</svg>
